<?xml version="1.0" encoding="UTF-8"?>
<!DOCTYPE svg PUBLIC "-//W3C//DTD SVG 1.1//EN" "http://www.w3.org/Graphics/SVG/1.1/DTD/svg11.dtd">
<!-- Creator: CorelDRAW 2019 (64 Bit) -->
<svg xmlns="http://www.w3.org/2000/svg" xml:space="preserve" width="0.471764in" height="0.470709in" version="1.1" style="shape-rendering:geometricPrecision; text-rendering:geometricPrecision; image-rendering:optimizeQuality; fill-rule:evenodd; clip-rule:evenodd"
viewBox="0 0 12.83 12.8"
 xmlns:xlink="http://www.w3.org/1999/xlink">
 <defs>
  <style type="text/css">
   <![CDATA[
    .fil0 {fill:aqua}
   ]]>
  </style>
 </defs>
 <g id="Camada_x0020_1">
  <metadata id="CorelCorpID_0Corel-Layer"/>
  <g id="_2186544005296">
   <path class="fil0" d="M-0 5.3c0.25,0.38 1.92,2.38 2.36,2.92l0.59 0.73c0.08,0.09 0.14,0.16 0.19,0.26l1.91 0c-0.02,-0.09 -0.26,-0.36 -0.35,-0.47 -0.13,-0.17 -0.25,-0.31 -0.38,-0.47l-2.28 -2.85c0.03,-0.05 0.2,-0.19 0.26,-0.25l2.99 -2.88c0.24,-0.24 0.97,-0.9 1.08,-1.06 -0.02,-0.07 -0.15,-0.24 -0.2,-0.31l-0.63 -0.91c-0.21,0.14 -0.7,0.68 -0.86,0.82 -0.29,0.24 -0.51,0.51 -0.68,0.66 -0.31,0.26 -0.47,0.47 -0.7,0.67l-1.91 1.82c-0.06,0.06 -0.1,0.1 -0.16,0.16 -0.08,0.08 -0.1,0.09 -0.18,0.16l-1.03 1.02z"/>
   <path class="fil0" d="M10.81 7.41c-0.17,0.11 -1.12,1.04 -1.35,1.28l-1.91 1.82c-0.24,0.24 -0.97,0.9 -1.08,1.06 0.02,0.09 0.35,0.52 0.41,0.62 0.14,0.22 0.28,0.4 0.42,0.61 0.21,-0.14 0.7,-0.68 0.86,-0.82 0.08,-0.07 0.11,-0.08 0.18,-0.16l1.72 -1.67c0.06,-0.06 0.1,-0.1 0.16,-0.16l0.53 -0.5c0.2,-0.2 2,-1.9 2.07,-2 -0.06,-0.08 -0.12,-0.15 -0.19,-0.24 -0.07,-0.09 -0.12,-0.16 -0.19,-0.24 -0.4,-0.44 -1.14,-1.41 -1.58,-1.95 -0.14,-0.17 -0.25,-0.32 -0.4,-0.49 -0.14,-0.17 -0.26,-0.32 -0.39,-0.49 -0.07,-0.09 -0.13,-0.15 -0.19,-0.23 -0.08,-0.09 -0.14,-0.16 -0.19,-0.26l-1.91 0c0.03,0.09 0.12,0.18 0.17,0.25l0.96 1.18c0.13,0.17 0.25,0.31 0.38,0.47l0.57 0.71c0.07,0.08 0.13,0.16 0.19,0.23 0.11,0.14 0.7,0.81 0.74,0.97z"/>
   <path class="fil0" d="M6.55 4.9c0.03,0.1 0.04,0.08 0.11,0.16 0.35,0.44 1.6,1.93 1.81,2.24l-1.16 1.12c-0.16,0.12 -1.04,1.04 -1.18,1.13 0.12,0.23 0.31,0.47 0.46,0.68 0.17,-0.12 2.82,-2.74 2.99,-2.85 -0.23,-0.34 -1.78,-2.2 -2.14,-2.65 -0.1,-0.13 -0.22,-0.26 -0.31,-0.4l-0.58 0.56z"/>
   <path class="fil0" d="M3.25 5.42l2.45 3.05 0.58 -0.56c-0.05,-0.17 -1.64,-1.99 -1.92,-2.4 0.07,-0.11 0.66,-0.65 0.86,-0.85 0.11,-0.11 0.17,-0.17 0.3,-0.27 0.28,-0.23 0.44,-0.47 0.73,-0.7 0.06,-0.05 0.09,-0.09 0.15,-0.14 0.1,-0.1 0.19,-0.21 0.31,-0.29 -0.12,-0.23 -0.31,-0.47 -0.46,-0.68l-2.23 2.13c-0.07,0.07 -0.12,0.12 -0.18,0.19l-0.58 0.53z"/>
  </g>
 </g>
</svg>
